<svg version="1.1" xmlns="http://www.w3.org/2000/svg" xmlns:xlink="http://www.w3.org/1999/xlink" width="700" height="700"><defs><clipPath id="IvaJqeRHpexM"><path fill="none" stroke="none" d="M 52.5 5.5 L 670.5 5.5 L 670.5 655.5 L 52.5 655.5 L 52.5 5.5"/></clipPath><clipPath id="NiJKvoPgCBhM"><path fill="none" stroke="none" d="M 52.5 5.5 L 670.5 5.5 L 670.5 655.5 L 52.5 655.5 L 52.5 5.5"/></clipPath><clipPath id="eGcNIOqoNGSz"><path fill="none" stroke="none" d="M 52.5 5.5 L 670.5 5.5 L 670.5 655.5 L 52.5 655.5 L 52.5 5.5"/></clipPath></defs><path fill="rgb(255,255,255)" stroke="none" paint-order="stroke" d="M 0.5 0.5 L 700.5 0.5 L 700.5 700.5 L 0.5 700.5 L 0.5 0.5" fill-opacity="1"/><rect fill="#FFFFFF" stroke="none" x="52" y="5" width="618" height="650" transform="matrix(1, 0, 0, 1, 0.5, 0.5)"/><path fill="rgb(255,255,255)" stroke="none" paint-order="stroke" d="M 52.5 5.5 L 670.5 5.5 L 670.5 655.5 L 52.5 655.5 L 52.5 5.5" fill-opacity="1"/><path fill="none" stroke="rgb(229,229,229)" paint-order="fill" d="M 52.5 5.5 L 670.5 5.5 L 670.5 655.5 L 52.5 655.5 L 52.5 5.5" stroke-opacity="1" stroke-linejoin="bevel" stroke-miterlimit="10" stroke-dasharray=""/><path fill="none" stroke="rgb(229,229,229)" paint-order="fill" d="M 77.5 655.5 L 77.5 5.5 M 211.5 655.5 L 211.5 5.5 M 346.5 655.5 L 346.5 5.5 M 481.5 655.5 L 481.5 5.5 M 615.5 655.5 L 615.5 5.5" stroke-opacity="1" stroke-linejoin="bevel" stroke-miterlimit="10" stroke-dasharray="" clip-path="url(#IvaJqeRHpexM)"/><path fill="none" stroke="rgb(229,229,229)" paint-order="fill" d="M 52.5 563.5 L 670.5 563.5 M 52.5 461.5 L 670.5 461.5 M 52.5 358.5 L 670.5 358.5 M 52.5 255.5 L 670.5 255.5 M 52.5 152.5 L 670.5 152.5 M 52.5 49.5 L 670.5 49.5" stroke-opacity="1" stroke-linejoin="bevel" stroke-miterlimit="10" stroke-dasharray="" clip-path="url(#NiJKvoPgCBhM)"/><path fill="none" stroke="none"/><path fill="rgb(8,77,150)" stroke="none" paint-order="stroke" d="M 155.40081787109375 369.6341857910156 A 6 6 0 1 1 155.400814871094 369.62818579201564" fill-opacity="0.7019607843137254" clip-path="url(#eGcNIOqoNGSz)"/><path fill="rgb(8,53,115)" stroke="none" paint-order="stroke" d="M 486.8349609375 226.10299682617188 A 6 6 0 1 1 486.83495793750023 226.09699682717186" fill-opacity="0.7019607843137254" clip-path="url(#eGcNIOqoNGSz)"/><path fill="rgb(128,128,128)" stroke="none" paint-order="stroke" d="M 89.85574340820312 542.5621337890625 A 3 3 0 1 1 89.85574190820326 542.5591337895625" fill-opacity="0.7019607843137254" clip-path="url(#eGcNIOqoNGSz)"/><path fill="rgb(8,62,129)" stroke="none" paint-order="stroke" d="M 224.27696228027344 312.23565673828125 A 6 6 0 1 1 224.2769592802737 312.22965673928127" fill-opacity="0.7019607843137254" clip-path="url(#eGcNIOqoNGSz)"/><path fill="rgb(16,91,164)" stroke="none" paint-order="stroke" d="M 131.6504135131836 404.1751708984375 A 6 6 0 1 1 131.65041051318386 404.1691708994375" fill-opacity="0.7019607843137254" clip-path="url(#eGcNIOqoNGSz)"/><path fill="rgb(100,169,211)" stroke="none" paint-order="stroke" d="M 99.4349594116211 498.6197814941406 A 6 6 0 1 1 99.43495641162134 498.61378149514064" fill-opacity="0.7019607843137254" clip-path="url(#eGcNIOqoNGSz)"/><path fill="rgb(128,128,128)" stroke="none" paint-order="stroke" d="M 94.62640380859375 508.6942443847656 A 3 3 0 1 1 94.62640230859388 508.69124438526563" fill-opacity="0.7019607843137254" clip-path="url(#eGcNIOqoNGSz)"/><path fill="rgb(8,70,139)" stroke="none" paint-order="stroke" d="M 180.40122985839844 344.02398681640625 A 6 6 0 1 1 180.4012268583987 344.01798681740627" fill-opacity="0.7019607843137254" clip-path="url(#eGcNIOqoNGSz)"/><path fill="rgb(128,128,128)" stroke="none" paint-order="stroke" d="M 89.96204376220703 541.6480712890625 A 3 3 0 1 1 89.96204226220716 541.6450712895625" fill-opacity="0.7019607843137254" clip-path="url(#eGcNIOqoNGSz)"/><path fill="rgb(20,96,168)" stroke="none" paint-order="stroke" d="M 126.40032196044922 414.1231689453125 A 6 6 0 1 1 126.40031896044947 414.1171689463125" fill-opacity="0.7019607843137254" clip-path="url(#eGcNIOqoNGSz)"/><path fill="rgb(8,48,107)" stroke="none" paint-order="stroke" d="M 156.3316192626953 50.2613639831543 A 6 6 0 1 1 156.33161626269558 50.25536398415429" fill-opacity="0.7019607843137254" clip-path="url(#eGcNIOqoNGSz)"/><path fill="rgb(25,102,173)" stroke="none" paint-order="stroke" d="M 121.63311767578125 424.2655029296875 A 6 6 0 1 1 121.6331146757815 424.2595029306875" fill-opacity="0.7019607843137254" clip-path="url(#eGcNIOqoNGSz)"/><path fill="rgb(37,117,183)" stroke="none" paint-order="stroke" d="M 112.97988891601562 446.3734436035156 A 6 6 0 1 1 112.97988591601587 446.36744360451564" fill-opacity="0.7019607843137254" clip-path="url(#eGcNIOqoNGSz)"/><path fill="rgb(128,128,128)" stroke="none" paint-order="stroke" d="M 86.42972564697266 578.57568359375 A 3 3 0 1 1 86.42972414697279 578.57268359425" fill-opacity="0.7019607843137254" clip-path="url(#eGcNIOqoNGSz)"/><path fill="rgb(128,128,128)" stroke="none" paint-order="stroke" d="M 94.62640380859375 508.6942443847656 A 3 3 0 1 1 94.62640230859388 508.69124438526563" fill-opacity="0.7019607843137254" clip-path="url(#eGcNIOqoNGSz)"/><path fill="rgb(78,154,203)" stroke="none" paint-order="stroke" d="M 102.266357421875 484.8453674316406 A 6 6 0 1 1 102.26635442187525 484.83936743264064" fill-opacity="0.7019607843137254" clip-path="url(#eGcNIOqoNGSz)"/><path fill="rgb(93,165,209)" stroke="none" paint-order="stroke" d="M 100.24651336669922 494.4472351074219 A 6 6 0 1 1 100.24651036669947 494.4412351084219" fill-opacity="0.7019607843137254" clip-path="url(#eGcNIOqoNGSz)"/><path fill="rgb(8,61,127)" stroke="none" paint-order="stroke" d="M 231.71788024902344 307.88482666015625 A 6 6 0 1 1 231.7178772490237 307.87882666115627" fill-opacity="0.7019607843137254" clip-path="url(#eGcNIOqoNGSz)"/><path fill="rgb(96,167,210)" stroke="none" paint-order="stroke" d="M 99.93301391601562 496.0357971191406 A 6 6 0 1 1 99.93301091601587 496.02979712014064" fill-opacity="0.7019607843137254" clip-path="url(#eGcNIOqoNGSz)"/><path fill="rgb(88,161,207)" stroke="none" paint-order="stroke" d="M 100.79546356201172 491.7325744628906 A 6 6 0 1 1 100.79546056201197 491.72657446389064" fill-opacity="0.7019607843137254" clip-path="url(#eGcNIOqoNGSz)"/><path fill="rgb(128,128,128)" stroke="none" paint-order="stroke" d="M 86.49061584472656 577.7904052734375 A 3 3 0 1 1 86.4906143447267 577.7874052739375" fill-opacity="0.7019607843137254" clip-path="url(#eGcNIOqoNGSz)"/><path fill="rgb(11,85,159)" stroke="none" paint-order="stroke" d="M 139.45054626464844 391.2347412109375 A 6 6 0 1 1 139.4505432646487 391.2287412119375" fill-opacity="0.7019607843137254" clip-path="url(#eGcNIOqoNGSz)"/><path fill="rgb(41,121,185)" stroke="none" paint-order="stroke" d="M 111.75212097167969 450.0177307128906 A 6 6 0 1 1 111.75211797167994 450.01173071389064" fill-opacity="0.7019607843137254" clip-path="url(#eGcNIOqoNGSz)"/><path fill="rgb(48,128,189)" stroke="none" paint-order="stroke" d="M 109.0805892944336 458.5134582519531 A 6 6 0 1 1 109.08058629443384 458.50745825295314" fill-opacity="0.7019607843137254" clip-path="url(#eGcNIOqoNGSz)"/><path fill="rgb(128,128,128)" stroke="none" paint-order="stroke" d="M 87.20591735839844 569.048095703125 A 3 3 0 1 1 87.20591585839857 569.045095703625" fill-opacity="0.7019607843137254" clip-path="url(#eGcNIOqoNGSz)"/><path fill="rgb(11,85,159)" stroke="none" paint-order="stroke" d="M 139.45054626464844 391.2347412109375 A 6 6 0 1 1 139.4505432646487 391.2287412119375" fill-opacity="0.7019607843137254" clip-path="url(#eGcNIOqoNGSz)"/><path fill="rgb(8,58,122)" stroke="none" paint-order="stroke" d="M 284.8672790527344 282.2214050292969 A 6 6 0 1 1 284.8672760527346 282.2154050302969" fill-opacity="0.7019607843137254" clip-path="url(#eGcNIOqoNGSz)"/><path fill="rgb(8,51,112)" stroke="none" paint-order="stroke" d="M 114.97550964355469 194.75917053222656 A 6 6 0 1 1 114.97550664355494 194.75317053322655" fill-opacity="0.7019607843137254" clip-path="url(#eGcNIOqoNGSz)"/><path fill="rgb(8,55,118)" stroke="none" paint-order="stroke" d="M 104.92671203613281 259.9336242675781 A 6 6 0 1 1 104.92670903613306 259.92762426857814" fill-opacity="0.7019607843137254" clip-path="url(#eGcNIOqoNGSz)"/><path fill="rgb(128,128,128)" stroke="none" paint-order="stroke" d="M 83.87645721435547 619.8843383789062 A 3 3 0 1 1 83.8764557143556 619.8813383794062" fill-opacity="0.7019607843137254" clip-path="url(#eGcNIOqoNGSz)"/><path fill="rgb(128,128,128)" stroke="none" paint-order="stroke" d="M 85.5546875 590.6988525390625 A 3 3 0 1 1 85.55468600000013 590.6958525395625" fill-opacity="0.7019607843137254" clip-path="url(#eGcNIOqoNGSz)"/><path fill="rgb(128,128,128)" stroke="none" paint-order="stroke" d="M 88.4679183959961 555.4495849609375 A 3 3 0 1 1 88.46791689599623 555.4465849614375" fill-opacity="0.7019607843137254" clip-path="url(#eGcNIOqoNGSz)"/><path fill="rgb(8,51,112)" stroke="none" paint-order="stroke" d="M 648.4091186523438 200.40765380859375 A 6 6 0 1 1 648.409115652344 200.40165380959374" fill-opacity="0.7019607843137254" clip-path="url(#eGcNIOqoNGSz)"/><path fill="rgb(8,54,116)" stroke="none" paint-order="stroke" d="M 397.071533203125 246.02906799316406 A 6 6 0 1 1 397.07153020312523 246.02306799416405" fill-opacity="0.7019607843137254" clip-path="url(#eGcNIOqoNGSz)"/><path fill="rgb(8,64,130)" stroke="none" paint-order="stroke" d="M 217.54470825195312 316.3835754394531 A 6 6 0 1 1 217.5447052519534 316.37757544045314" fill-opacity="0.7019607843137254" clip-path="url(#eGcNIOqoNGSz)"/><path fill="rgb(8,73,144)" stroke="none" paint-order="stroke" d="M 166.06275939941406 357.7507019042969 A 6 6 0 1 1 166.06275639941433 357.7447019052969" fill-opacity="0.7019607843137254" clip-path="url(#eGcNIOqoNGSz)"/><path fill="rgb(8,60,125)" stroke="none" paint-order="stroke" d="M 249.22592163085938 298.4876708984375 A 6 6 0 1 1 249.22591863085964 298.4816708994375" fill-opacity="0.7019607843137254" clip-path="url(#eGcNIOqoNGSz)"/><path fill="rgb(8,53,115)" stroke="none" paint-order="stroke" d="M 486.8349609375 226.10299682617188 A 6 6 0 1 1 486.83495793750023 226.09699682717186" fill-opacity="0.7019607843137254" clip-path="url(#eGcNIOqoNGSz)"/><path fill="rgb(128,128,128)" stroke="none" paint-order="stroke" d="M 83.9103012084961 619.1912841796875 A 3 3 0 1 1 83.91029970849623 619.1882841801875" fill-opacity="0.7019607843137254" clip-path="url(#eGcNIOqoNGSz)"/><path fill="rgb(128,128,128)" stroke="none" paint-order="stroke" d="M 92.35575103759766 523.2201538085938 A 3 3 0 1 1 92.35574953759779 523.2171538090937" fill-opacity="0.7019607843137254" clip-path="url(#eGcNIOqoNGSz)"/><path fill="rgb(128,128,128)" stroke="none" paint-order="stroke" d="M 86.41468048095703 578.7708129882812 A 3 3 0 1 1 86.41467898095716 578.7678129887812" fill-opacity="0.7019607843137254" clip-path="url(#eGcNIOqoNGSz)"/><path fill="rgb(58,138,194)" stroke="none" paint-order="stroke" d="M 105.88778686523438 469.8796691894531 A 6 6 0 1 1 105.88778386523462 469.87366919045314" fill-opacity="0.7019607843137254" clip-path="url(#eGcNIOqoNGSz)"/><path fill="rgb(128,128,128)" stroke="none" paint-order="stroke" d="M 83.59091186523438 625.9545288085938 A 3 3 0 1 1 83.5909103652345 625.9515288090937" fill-opacity="0.7019607843137254" clip-path="url(#eGcNIOqoNGSz)"/><path fill="rgb(84,159,205)" stroke="none" paint-order="stroke" d="M 101.38029479980469 488.92950439453125 A 6 6 0 1 1 101.38029179980494 488.92350439553127" fill-opacity="0.7019607843137254" clip-path="url(#eGcNIOqoNGSz)"/><path fill="rgb(78,154,203)" stroke="none" paint-order="stroke" d="M 102.266357421875 484.8453674316406 A 6 6 0 1 1 102.26635442187525 484.83936743264064" fill-opacity="0.7019607843137254" clip-path="url(#eGcNIOqoNGSz)"/><path fill="rgb(8,52,113)" stroke="none" paint-order="stroke" d="M 554.1575317382812 214.1769256591797 A 6 6 0 1 1 554.1575287382815 214.17092566017968" fill-opacity="0.7019607843137254" clip-path="url(#eGcNIOqoNGSz)"/><path fill="rgb(128,128,128)" stroke="none" paint-order="stroke" d="M 89.41995239257812 546.4114379882812 A 3 3 0 1 1 89.41995089257826 546.4084379887812" fill-opacity="0.7019607843137254" clip-path="url(#eGcNIOqoNGSz)"/><path fill="rgb(128,128,128)" stroke="none" paint-order="stroke" d="M 94.39983367919922 510.04119873046875 A 3 3 0 1 1 94.39983217919935 510.03819873096876" fill-opacity="0.7019607843137254" clip-path="url(#eGcNIOqoNGSz)"/><path fill="rgb(8,59,124)" stroke="none" paint-order="stroke" d="M 259.6213073730469 293.3887939453125 A 6 6 0 1 1 259.6213043730471 293.3827939463125" fill-opacity="0.7019607843137254" clip-path="url(#eGcNIOqoNGSz)"/><path fill="rgb(10,83,158)" stroke="none" paint-order="stroke" d="M 143.0601806640625 385.8472595214844 A 6 6 0 1 1 143.06017766406276 385.8412595224844" fill-opacity="0.7019607843137254" clip-path="url(#eGcNIOqoNGSz)"/><path fill="rgb(8,61,127)" stroke="none" paint-order="stroke" d="M 239.98556518554688 303.31024169921875 A 6 6 0 1 1 239.98556218554714 303.30424170021877" fill-opacity="0.7019607843137254" clip-path="url(#eGcNIOqoNGSz)"/><path fill="rgb(8,52,113)" stroke="none" paint-order="stroke" d="M 554.1575317382812 214.1769256591797 A 6 6 0 1 1 554.1575287382815 214.17092566017968" fill-opacity="0.7019607843137254" clip-path="url(#eGcNIOqoNGSz)"/><path fill="rgb(29,108,177)" stroke="none" paint-order="stroke" d="M 117.38188171386719 434.4298400878906 A 6 6 0 1 1 117.38187871386744 434.42384008889064" fill-opacity="0.7019607843137254" clip-path="url(#eGcNIOqoNGSz)"/><path fill="rgb(8,48,107)" stroke="none" paint-order="stroke" d="M 163.02561950683594 35.04545593261719 A 6 6 0 1 1 163.0256165068362 35.039455933617184" fill-opacity="0.7019607843137254" clip-path="url(#eGcNIOqoNGSz)"/><path fill="rgb(8,58,122)" stroke="none" paint-order="stroke" d="M 102.01141357421875 284.4089050292969 A 6 6 0 1 1 102.011410574219 284.4029050302969" fill-opacity="0.7019607843137254" clip-path="url(#eGcNIOqoNGSz)"/><path fill="none" stroke="rgb(0,0,0)" paint-order="fill" d="M 52.5 655.5 L 670.5 655.5" stroke-opacity="1" stroke-linejoin="bevel" stroke-miterlimit="10" stroke-dasharray=""/><path fill="none" stroke="rgb(0,0,0)" paint-order="fill" d="M 77.5 661.5 L 77.5 653.5 M 211.5 661.5 L 211.5 653.5 M 346.5 661.5 L 346.5 653.5 M 481.5 661.5 L 481.5 653.5 M 615.5 661.5 L 615.5 653.5" stroke-opacity="1" stroke-linejoin="bevel" stroke-miterlimit="10" stroke-dasharray=""/><path fill="none" stroke="rgb(0,0,0)" paint-order="fill" d="M 77.5 659.5 L 77.5 655.5 M 103.5 659.5 L 103.5 655.5 M 130.5 659.5 L 130.5 655.5 M 157.5 659.5 L 157.5 655.5 M 184.5 659.5 L 184.5 655.5 M 211.5 659.5 L 211.5 655.5 M 238.5 659.5 L 238.5 655.5 M 265.5 659.5 L 265.5 655.5 M 292.5 659.5 L 292.5 655.5 M 319.5 659.5 L 319.5 655.5 M 346.5 659.5 L 346.5 655.5 M 373.5 659.5 L 373.5 655.5 M 400.5 659.5 L 400.5 655.5 M 427.5 659.5 L 427.5 655.5 M 454.5 659.5 L 454.5 655.5 M 481.5 659.5 L 481.5 655.5 M 508.5 659.5 L 508.5 655.5 M 534.5 659.5 L 534.5 655.5 M 561.5 659.5 L 561.5 655.5 M 588.5 659.5 L 588.5 655.5 M 615.5 659.5 L 615.5 655.5 M 642.5 659.5 L 642.5 655.5 M 669.5 659.5 L 669.5 655.5" stroke-opacity="1" stroke-linejoin="bevel" stroke-miterlimit="10" stroke-dasharray=""/><text fill="rgb(68,68,68)" stroke="none" font-family="helvetica" font-size="11px" font-style="normal" font-weight="normal" text-decoration="normal" x="73.4754409790039" y="674" text-anchor="start" dominant-baseline="alphabetic" transform="matrix(1, 0, 0, 1, 0.5, 0.5)" fill-opacity="1">0</text><text fill="rgb(68,68,68)" stroke="none" font-family="helvetica" font-size="11px" font-style="normal" font-weight="normal" text-decoration="normal" x="202.04136657714844" y="674" text-anchor="start" dominant-baseline="alphabetic" transform="matrix(1, 0, 0, 1, 0.5, 0.5)" fill-opacity="1">200</text><text fill="rgb(68,68,68)" stroke="none" font-family="helvetica" font-size="11px" font-style="normal" font-weight="normal" text-decoration="normal" x="336.7249755859375" y="674" text-anchor="start" dominant-baseline="alphabetic" transform="matrix(1, 0, 0, 1, 0.5, 0.5)" fill-opacity="1">400</text><text fill="rgb(68,68,68)" stroke="none" font-family="helvetica" font-size="11px" font-style="normal" font-weight="normal" text-decoration="normal" x="471.4085693359375" y="674" text-anchor="start" dominant-baseline="alphabetic" transform="matrix(1, 0, 0, 1, 0.5, 0.5)" fill-opacity="1">600</text><text fill="rgb(68,68,68)" stroke="none" font-family="helvetica" font-size="11px" font-style="normal" font-weight="normal" text-decoration="normal" x="606.0921630859375" y="674" text-anchor="start" dominant-baseline="alphabetic" transform="matrix(1, 0, 0, 1, 0.5, 0.5)" fill-opacity="1">800</text><text fill="rgb(68,68,68)" stroke="none" font-family="helvetica" font-size="13px" font-style="italic" font-weight="normal" text-decoration="normal" x="328.484130859375" y="694" text-anchor="start" dominant-baseline="alphabetic" transform="matrix(1, 0, 0, 1, 0.5, 0.5)" fill-opacity="1">Odds Ratio</text><path fill="none" stroke="rgb(0,0,0)" paint-order="fill" d="M 52.5 655.5 L 52.5 5.5" stroke-opacity="1" stroke-linejoin="bevel" stroke-miterlimit="10" stroke-dasharray=""/><path fill="none" stroke="rgb(0,0,0)" paint-order="fill" d="M 46.5 563.5 L 54.5 563.5 M 46.5 461.5 L 54.5 461.5 M 46.5 358.5 L 54.5 358.5 M 46.5 255.5 L 54.5 255.5 M 46.5 152.5 L 54.5 152.5 M 46.5 49.5 L 54.5 49.5" stroke-opacity="1" stroke-linejoin="bevel" stroke-miterlimit="10" stroke-dasharray=""/><path fill="none" stroke="rgb(0,0,0)" paint-order="fill" d="M 48.5 584.5 L 52.5 584.5 M 48.5 605.5 L 52.5 605.5 M 48.5 625.5 L 52.5 625.5 M 48.5 646.5 L 52.5 646.5 M 48.5 563.5 L 52.5 563.5 M 48.5 543.5 L 52.5 543.5 M 48.5 522.5 L 52.5 522.5 M 48.5 502.5 L 52.5 502.5 M 48.5 481.5 L 52.5 481.5 M 48.5 461.5 L 52.5 461.5 M 48.5 440.5 L 52.5 440.5 M 48.5 419.5 L 52.5 419.5 M 48.5 399.5 L 52.5 399.5 M 48.5 378.5 L 52.5 378.5 M 48.5 358.5 L 52.5 358.5 M 48.5 337.5 L 52.5 337.5 M 48.5 316.5 L 52.5 316.5 M 48.5 296.5 L 52.5 296.5 M 48.5 275.5 L 52.5 275.5 M 48.5 255.5 L 52.5 255.5 M 48.5 234.5 L 52.5 234.5 M 48.5 214.5 L 52.5 214.5 M 48.5 193.5 L 52.5 193.5 M 48.5 172.5 L 52.5 172.5 M 48.5 152.5 L 52.5 152.5 M 48.5 131.5 L 52.5 131.5 M 48.5 111.5 L 52.5 111.5 M 48.5 90.5 L 52.5 90.5 M 48.5 69.5 L 52.5 69.5 M 48.5 49.5 L 52.5 49.5 M 48.5 28.5 L 52.5 28.5 M 48.5 8.5 L 52.5 8.5" stroke-opacity="1" stroke-linejoin="bevel" stroke-miterlimit="10" stroke-dasharray=""/><text fill="rgb(68,68,68)" stroke="none" font-family="helvetica" font-size="11px" font-style="normal" font-weight="normal" text-decoration="normal" x="34.88232421875" y="567.4464111328125" text-anchor="start" dominant-baseline="alphabetic" transform="matrix(1, 0, 0, 1, 0.5, 0.5)" fill-opacity="1">1</text><text fill="rgb(68,68,68)" stroke="none" font-family="helvetica" font-size="11px" font-style="normal" font-weight="normal" text-decoration="normal" x="25.70849609375" y="464.5294494628906" text-anchor="start" dominant-baseline="alphabetic" transform="matrix(1, 0, 0, 1, 0.5, 0.5)" fill-opacity="1">1.5</text><text fill="rgb(68,68,68)" stroke="none" font-family="helvetica" font-size="11px" font-style="normal" font-weight="normal" text-decoration="normal" x="34.88232421875" y="361.6125183105469" text-anchor="start" dominant-baseline="alphabetic" transform="matrix(1, 0, 0, 1, 0.5, 0.5)" fill-opacity="1">2</text><text fill="rgb(68,68,68)" stroke="none" font-family="helvetica" font-size="11px" font-style="normal" font-weight="normal" text-decoration="normal" x="25.70849609375" y="258.695556640625" text-anchor="start" dominant-baseline="alphabetic" transform="matrix(1, 0, 0, 1, 0.5, 0.5)" fill-opacity="1">2.5</text><text fill="rgb(68,68,68)" stroke="none" font-family="helvetica" font-size="11px" font-style="normal" font-weight="normal" text-decoration="normal" x="34.88232421875" y="155.77859497070312" text-anchor="start" dominant-baseline="alphabetic" transform="matrix(1, 0, 0, 1, 0.5, 0.5)" fill-opacity="1">3</text><text fill="rgb(68,68,68)" stroke="none" font-family="helvetica" font-size="11px" font-style="normal" font-weight="normal" text-decoration="normal" x="25.70849609375" y="52.86164855957031" text-anchor="start" dominant-baseline="alphabetic" transform="matrix(1, 0, 0, 1, 0.5, 0.5)" fill-opacity="1">3.5</text><text fill="rgb(68,68,68)" stroke="none" font-family="helvetica" font-size="13px" font-style="italic" font-weight="normal" text-decoration="normal" x="-26.0078125" y="327" text-anchor="start" dominant-baseline="alphabetic" transform="matrix(6.123233995736766e-17, -1, 1, 6.123233995736766e-17, -311.79150390625, 348.20849609375)" fill-opacity="1">-log10(p-value)</text></svg>